# xmcd CD database file
#
# Track frame offsets:
#	150
#	14392
#	30080
#	48497
#	66770
#	81527
#	96970
#	116260
#	133132
#	150437
#
# Disc length: 2190 seconds
#
# Revision: 4
# Processed by: cddbd v1.4PL0 Copyright (c) Steve Scherf et al.
# Submitted via: CDex 1.50beta10
#
DISCID=77088c0a
DTITLE=Steve Wariner - Greatest Hits
DYEAR=1987
DGENRE=Country
TTITLE0=What I Didn't Do
TTITLE1=Heart Trouble
TTITLE2=Some Fools Never Learn
TTITLE3=You Can Dream Of Me
TTITLE4=Life's Highway
TTITLE5=That's How You Know When Love's Right
TTITLE6=Starting Over Again
TTITLE7=Small Town Girl
TTITLE8=The Weekend
TTITLE9=Lynda
EXTD=YEAR: 1987
EXTT0=
EXTT1=
EXTT2=
EXTT3=
EXTT4=
EXTT5=
EXTT6=
EXTT7=
EXTT8=
EXTT9=
PLAYORDER=
